# xmcd CD database file
#
# Track frame offsets:
#	150
#	16093
#	31795
#	50615
#	71268
#	91730
#	113610
#	127440
#	145568
#	156803
#
# Disc length: 2294 seconds
#
# Revision: 2
# Processed by: cddbd v1.4PL0 Copyright (c) Steve Scherf et al.
# Submitted via: CDex 1.50Beta7
#
DISCID=7608f40a
DTITLE=John Lee Hooker - Jealous
DYEAR=1986
DGENRE=Blues
TTITLE0=Jealous
TTITLE1=Ninety Days
TTITLE2=Early One Morning
TTITLE3=When My First Wife Left Me
TTITLE4=Boogie Woman
TTITLE5=Well Well
TTITLE6=I Didn't Know
TTITLE7=We'll Meet Again
TTITLE8=Worried Life Blues
TTITLE9=Ninety Days (reprise)
EXTD=YEAR: 1986
EXTT0=
EXTT1=
EXTT2=
EXTT3=
EXTT4=
EXTT5=
EXTT6=
EXTT7=
EXTT8=
EXTT9=
PLAYORDER=
